{
	"asset":{
		"generator":"Khronos glTF Blender I/O v3.5.30",
		"version":"2.0"
	},
	"extensionsUsed":[
		"KHR_materials_clearcoat",
		"KHR_materials_specular",
		"KHR_materials_ior",
		"KHR_materials_emissive_strength"
	],
	"scene":0,
	"scenes":[
		{
			"name":"Scene",
			"nodes":[
				0,
				1
			]
		}
	],
	"nodes":[
		{
			"mesh":0,
			"name":"Cube",
			"translation":[
				0,
				1.8446177244186401,
				0
			]
		},
		{
			"mesh":1,
			"name":"Cube.002",
			"translation":[
				0,
				1.8446177244186401,
				0.02734118513762951
			]
		}
	],
	"materials":[
		{
			"doubleSided":true,
			"extensions":{
				"KHR_materials_clearcoat":{
					"clearcoatFactor":1,
					"clearcoatRoughnessFactor":0.029999999329447746
				},
				"KHR_materials_specular":{
					"specularColorFactor":[
						1.6599503018401929,
						1.6599503018401929,
						1.6599503018401929
					]
				},
				"KHR_materials_ior":{
					"ior":1.4500000476837158
				}
			},
			"name":"Color 1",
			"pbrMetallicRoughness":{
				"baseColorFactor":[
					0.042027391493320465,
					0.042027391493320465,
					0.042027391493320465,
					1
				],
				"roughnessFactor":0.20000000298023224
			}
		},
		{
			"doubleSided":true,
			"extensions":{
				"KHR_materials_specular":{
					"specularColorFactor":[
						1.3698619599567887,
						1.3698619599567887,
						1.3698619599567887
					]
				},
				"KHR_materials_ior":{
					"ior":1.4500000476837158
				}
			},
			"name":"Metal",
			"pbrMetallicRoughness":{
				"baseColorFactor":[
					0.800000011920929,
					0.800000011920929,
					0.800000011920929,
					1
				],
				"roughnessFactor":0.4000000059604645
			}
		},
		{
			"doubleSided":true,
			"name":"Dark",
			"pbrMetallicRoughness":{
				"baseColorFactor":[
					0,
					0,
					0,
					1
				],
				"roughnessFactor":0.5
			}
		},
		{
			"doubleSided":true,
			"name":"Blue",
			"pbrMetallicRoughness":{
				"baseColorFactor":[
					0.06144525483250618,
					0.33099427819252014,
					1,
					1
				],
				"metallicFactor":0,
				"roughnessFactor":0.5
			}
		},
		{
			"doubleSided":true,
			"extensions":{
				"KHR_materials_specular":{
					"specularColorFactor":[
						1.6599503018401929,
						1.6599503018401929,
						1.6599503018401929
					]
				},
				"KHR_materials_ior":{
					"ior":1.4500000476837158
				}
			},
			"name":"Color 2",
			"pbrMetallicRoughness":{
				"baseColorFactor":[
					0.11279961466789246,
					0.11279961466789246,
					0.11279961466789246,
					1
				],
				"roughnessFactor":0.4000000059604645
			}
		},
		{
			"doubleSided":true,
			"extensions":{
				"KHR_materials_specular":{
					"specularColorFactor":[
						1.6599503018401929,
						1.6599503018401929,
						1.6599503018401929
					]
				},
				"KHR_materials_ior":{
					"ior":1.4500000476837158
				}
			},
			"name":"Color 3",
			"pbrMetallicRoughness":{
				"baseColorFactor":[
					0.03105832263827324,
					0.03105832263827324,
					0.03105832263827324,
					1
				],
				"roughnessFactor":0.30000001192092896
			}
		},
		{
			"doubleSided":true,
			"emissiveFactor":[
				1,
				1,
				1
			],
			"emissiveTexture":{
				"index":0
			},
			"extensions":{
				"KHR_materials_emissive_strength":{
					"emissiveStrength":3
				}
			},
			"name":"Losck screen",
			"pbrMetallicRoughness":{
				"baseColorFactor":[
					0,
					0,
					0,
					1
				]
			}
		}
	],
	"meshes":[
		{
			"name":"Cube",
			"primitives":[
				{
					"attributes":{
						"POSITION":0,
						"TEXCOORD_0":1,
						"NORMAL":2
					},
					"indices":3,
					"material":0
				},
				{
					"attributes":{
						"POSITION":4,
						"TEXCOORD_0":5,
						"NORMAL":6
					},
					"indices":7,
					"material":1
				},
				{
					"attributes":{
						"POSITION":8,
						"TEXCOORD_0":9,
						"NORMAL":10
					},
					"indices":11,
					"material":2
				},
				{
					"attributes":{
						"POSITION":12,
						"TEXCOORD_0":13,
						"NORMAL":14
					},
					"indices":15,
					"material":3
				},
				{
					"attributes":{
						"POSITION":16,
						"TEXCOORD_0":17,
						"NORMAL":18
					},
					"indices":19,
					"material":4
				},
				{
					"attributes":{
						"POSITION":20,
						"TEXCOORD_0":21,
						"NORMAL":22
					},
					"indices":23,
					"material":5
				}
			]
		},
		{
			"name":"Cube.002",
			"primitives":[
				{
					"attributes":{
						"POSITION":24,
						"TEXCOORD_0":25,
						"NORMAL":26
					},
					"indices":27,
					"material":6
				}
			]
		}
	],
	"textures":[
		{
			"sampler":0,
			"source":0
		}
	],
	"images":[
		{
			"bufferView":28,
			"mimeType":"image/jpeg",
			"name":"Lock Screen"
		}
	],
	"accessors":[
		{
			"bufferView":0,
			"componentType":5126,
			"count":1989,
			"max":[
				2.9874439239501953,
				1.8713886737823486,
				0.4375397861003876
			],
			"min":[
				-2.9874439239501953,
				-0.9096571803092957,
				-0.15808898210525513
			],
			"type":"VEC3"
		},
		{
			"bufferView":1,
			"componentType":5126,
			"count":1989,
			"type":"VEC2"
		},
		{
			"bufferView":2,
			"componentType":5126,
			"count":1989,
			"type":"VEC3"
		},
		{
			"bufferView":3,
			"componentType":5123,
			"count":6741,
			"type":"SCALAR"
		},
		{
			"bufferView":4,
			"componentType":5126,
			"count":3108,
			"max":[
				0.6805122494697571,
				-0.5120618939399719,
				-0.025505423545837402
			],
			"min":[
				-0.5043174624443054,
				-0.7006763219833374,
				-0.07026484608650208
			],
			"type":"VEC3"
		},
		{
			"bufferView":5,
			"componentType":5126,
			"count":3108,
			"type":"VEC2"
		},
		{
			"bufferView":6,
			"componentType":5126,
			"count":3108,
			"type":"VEC3"
		},
		{
			"bufferView":7,
			"componentType":5123,
			"count":9657,
			"type":"SCALAR"
		},
		{
			"bufferView":8,
			"componentType":5126,
			"count":3040,
			"max":[
				2.95450758934021,
				1.857331395149231,
				0.35733285546302795
			],
			"min":[
				-2.95450758934021,
				-0.9006999731063843,
				-0.07119367271661758
			],
			"type":"VEC3"
		},
		{
			"bufferView":9,
			"componentType":5126,
			"count":3040,
			"type":"VEC2"
		},
		{
			"bufferView":10,
			"componentType":5126,
			"count":3040,
			"type":"VEC3"
		},
		{
			"bufferView":11,
			"componentType":5123,
			"count":7764,
			"type":"SCALAR"
		},
		{
			"bufferView":12,
			"componentType":5126,
			"count":1324,
			"max":[
				-0.3742135167121887,
				-0.5312655568122864,
				-0.07026484608650208
			],
			"min":[
				-0.4781860113143921,
				-0.6664808988571167,
				-0.07119367271661758
			],
			"type":"VEC3"
		},
		{
			"bufferView":13,
			"componentType":5126,
			"count":1324,
			"type":"VEC2"
		},
		{
			"bufferView":14,
			"componentType":5126,
			"count":1324,
			"type":"VEC3"
		},
		{
			"bufferView":15,
			"componentType":5123,
			"count":4704,
			"type":"SCALAR"
		},
		{
			"bufferView":16,
			"componentType":5126,
			"count":1506,
			"max":[
				1.6275242567062378,
				0.5064554810523987,
				0.7738444805145264
			],
			"min":[
				-1.6275242567062378,
				-1.8443892002105713,
				-0.37912359833717346
			],
			"type":"VEC3"
		},
		{
			"bufferView":17,
			"componentType":5126,
			"count":1506,
			"type":"VEC2"
		},
		{
			"bufferView":18,
			"componentType":5126,
			"count":1506,
			"type":"VEC3"
		},
		{
			"bufferView":19,
			"componentType":5123,
			"count":6015,
			"type":"SCALAR"
		},
		{
			"bufferView":20,
			"componentType":5126,
			"count":36,
			"max":[
				0.12084349244832993,
				-0.2278878390789032,
				-0.3454155921936035
			],
			"min":[
				-0.12084349244832993,
				-1.5519018173217773,
				-0.3454155921936035
			],
			"type":"VEC3"
		},
		{
			"bufferView":21,
			"componentType":5126,
			"count":36,
			"type":"VEC2"
		},
		{
			"bufferView":22,
			"componentType":5126,
			"count":36,
			"type":"VEC3"
		},
		{
			"bufferView":23,
			"componentType":5123,
			"count":144,
			"type":"SCALAR"
		},
		{
			"bufferView":24,
			"componentType":5126,
			"count":44,
			"max":[
				2.941494941711426,
				1.816528081893921,
				0.36985939741134644
			],
			"min":[
				-2.941494941711426,
				-0.7713723182678223,
				0.03516831621527672
			],
			"type":"VEC3"
		},
		{
			"bufferView":25,
			"componentType":5126,
			"count":44,
			"type":"VEC2"
		},
		{
			"bufferView":26,
			"componentType":5126,
			"count":44,
			"type":"VEC3"
		},
		{
			"bufferView":27,
			"componentType":5123,
			"count":180,
			"type":"SCALAR"
		}
	],
	"bufferViews":[
		{
			"buffer":0,
			"byteLength":23868,
			"byteOffset":0,
			"target":34962
		},
		{
			"buffer":0,
			"byteLength":15912,
			"byteOffset":23868,
			"target":34962
		},
		{
			"buffer":0,
			"byteLength":23868,
			"byteOffset":39780,
			"target":34962
		},
		{
			"buffer":0,
			"byteLength":13482,
			"byteOffset":63648,
			"target":34963
		},
		{
			"buffer":0,
			"byteLength":37296,
			"byteOffset":77132,
			"target":34962
		},
		{
			"buffer":0,
			"byteLength":24864,
			"byteOffset":114428,
			"target":34962
		},
		{
			"buffer":0,
			"byteLength":37296,
			"byteOffset":139292,
			"target":34962
		},
		{
			"buffer":0,
			"byteLength":19314,
			"byteOffset":176588,
			"target":34963
		},
		{
			"buffer":0,
			"byteLength":36480,
			"byteOffset":195904,
			"target":34962
		},
		{
			"buffer":0,
			"byteLength":24320,
			"byteOffset":232384,
			"target":34962
		},
		{
			"buffer":0,
			"byteLength":36480,
			"byteOffset":256704,
			"target":34962
		},
		{
			"buffer":0,
			"byteLength":15528,
			"byteOffset":293184,
			"target":34963
		},
		{
			"buffer":0,
			"byteLength":15888,
			"byteOffset":308712,
			"target":34962
		},
		{
			"buffer":0,
			"byteLength":10592,
			"byteOffset":324600,
			"target":34962
		},
		{
			"buffer":0,
			"byteLength":15888,
			"byteOffset":335192,
			"target":34962
		},
		{
			"buffer":0,
			"byteLength":9408,
			"byteOffset":351080,
			"target":34963
		},
		{
			"buffer":0,
			"byteLength":18072,
			"byteOffset":360488,
			"target":34962
		},
		{
			"buffer":0,
			"byteLength":12048,
			"byteOffset":378560,
			"target":34962
		},
		{
			"buffer":0,
			"byteLength":18072,
			"byteOffset":390608,
			"target":34962
		},
		{
			"buffer":0,
			"byteLength":12030,
			"byteOffset":408680,
			"target":34963
		},
		{
			"buffer":0,
			"byteLength":432,
			"byteOffset":420712,
			"target":34962
		},
		{
			"buffer":0,
			"byteLength":288,
			"byteOffset":421144,
			"target":34962
		},
		{
			"buffer":0,
			"byteLength":432,
			"byteOffset":421432,
			"target":34962
		},
		{
			"buffer":0,
			"byteLength":288,
			"byteOffset":421864,
			"target":34963
		},
		{
			"buffer":0,
			"byteLength":528,
			"byteOffset":422152,
			"target":34962
		},
		{
			"buffer":0,
			"byteLength":352,
			"byteOffset":422680,
			"target":34962
		},
		{
			"buffer":0,
			"byteLength":528,
			"byteOffset":423032,
			"target":34962
		},
		{
			"buffer":0,
			"byteLength":360,
			"byteOffset":423560,
			"target":34963
		},
		{
			"buffer":0,
			"byteLength":137374,
			"byteOffset":423920
		}
	],
	"samplers":[
		{
			"magFilter":9729,
			"minFilter":9987
		}
	],
	"buffers":[
		{
			"byteLength":561296,
			"uri":"data:application/octet-stream;base64,"
		}
	]
}
