{
	"asset":{
		"generator":"Khronos glTF Blender I/O v3.5.30",
		"version":"2.0"
	},
	"scene":0,
	"scenes":[
		{
			"name":"Scene",
			"nodes":[
				0,
				1,
				2,
				3,
				4
			]
		}
	],
	"nodes":[
		{
			"mesh":0,
			"name":"Comp_Mouse",
			"scale":[
				0.013383776880800724,
				0.013383776880800724,
				0.013383776880800724
			]
		},
		{
			"mesh":1,
			"name":"Monitor",
			"scale":[
				0.013383776880800724,
				0.013383776880800724,
				0.013383776880800724
			]
		},
		{
			"mesh":2,
			"name":"Drive",
			"scale":[
				0.013383776880800724,
				0.013383776880800724,
				0.013383776880800724
			]
		},
		{
			"mesh":3,
			"name":"System_unit",
			"scale":[
				0.013383776880800724,
				0.013383776880800724,
				0.013383776880800724
			]
		},
		{
			"mesh":4,
			"name":"Keyboard1",
			"scale":[
				0.013383776880800724,
				0.013383776880800724,
				0.013383776880800724
			]
		}
	],
	"materials":[
		{
			"name":"lambert3SG",
			"pbrMetallicRoughness":{
				"baseColorTexture":{
					"index":0
				},
				"metallicFactor":0
			}
		},
		{
			"name":"initialShadingGroup",
			"pbrMetallicRoughness":{
				"baseColorFactor":[
					0.5,
					0.5,
					0.5,
					1
				],
				"metallicFactor":0
			}
		}
	],
	"meshes":[
		{
			"name":"Comp_Mouse_1",
			"primitives":[
				{
					"attributes":{
						"POSITION":0,
						"TEXCOORD_0":1,
						"NORMAL":2
					},
					"indices":3,
					"material":0
				}
			]
		},
		{
			"name":"Monitor_1",
			"primitives":[
				{
					"attributes":{
						"POSITION":4,
						"TEXCOORD_0":5,
						"NORMAL":6
					},
					"indices":7,
					"material":0
				}
			]
		},
		{
			"name":"Drive_1",
			"primitives":[
				{
					"attributes":{
						"POSITION":8,
						"TEXCOORD_0":9,
						"NORMAL":10
					},
					"indices":11,
					"material":0
				}
			]
		},
		{
			"name":"System_unit_1",
			"primitives":[
				{
					"attributes":{
						"POSITION":12,
						"TEXCOORD_0":13,
						"NORMAL":14
					},
					"indices":15,
					"material":0
				},
				{
					"attributes":{
						"POSITION":16,
						"TEXCOORD_0":17,
						"NORMAL":18
					},
					"indices":19,
					"material":1
				}
			]
		},
		{
			"name":"Keyboard1_1",
			"primitives":[
				{
					"attributes":{
						"POSITION":20,
						"TEXCOORD_0":21,
						"NORMAL":22
					},
					"indices":23,
					"material":0
				}
			]
		}
	],
	"textures":[
		{
			"sampler":0,
			"source":0
		}
	],
	"images":[
		{
			"bufferView":4,
			"mimeType":"image/png",
			"name":"Computer Texture"
		}
	],
	"accessors":[
		{
			"bufferView":0,
			"componentType":5126,
			"count":52,
			"max":[
				347.1596984863281,
				20.5,
				271.96514892578125
			],
			"min":[
				305.15966796875,
				-0.5,
				211.9651641845703
			],
			"type":"VEC3"
		},
		{
			"bufferView":1,
			"componentType":5126,
			"count":52,
			"type":"VEC2"
		},
		{
			"bufferView":2,
			"componentType":5126,
			"count":52,
			"type":"VEC3"
		},
		{
			"bufferView":3,
			"componentType":5123,
			"count":96,
			"type":"SCALAR"
		},
		{
			"bufferView":5,
			"componentType":5126,
			"count":279,
			"max":[
				189.6807403564453,
				282.43756103515625,
				37.321102142333984
			],
			"min":[
				-189.68072509765625,
				-1.1840670108795166,
				-77.32110595703125
			],
			"type":"VEC3"
		},
		{
			"bufferView":6,
			"componentType":5126,
			"count":279,
			"type":"VEC2"
		},
		{
			"bufferView":7,
			"componentType":5126,
			"count":279,
			"type":"VEC3"
		},
		{
			"bufferView":8,
			"componentType":5123,
			"count":600,
			"type":"SCALAR"
		},
		{
			"bufferView":9,
			"componentType":5126,
			"count":359,
			"max":[
				373.7625732421875,
				253.1846466064453,
				111.29037475585938
			],
			"min":[
				266.23748779296875,
				238.8153533935547,
				-23.25
			],
			"type":"VEC3"
		},
		{
			"bufferView":10,
			"componentType":5126,
			"count":359,
			"type":"VEC2"
		},
		{
			"bufferView":11,
			"componentType":5126,
			"count":359,
			"type":"VEC3"
		},
		{
			"bufferView":12,
			"componentType":5123,
			"count":588,
			"type":"SCALAR"
		},
		{
			"bufferView":13,
			"componentType":5126,
			"count":286,
			"max":[
				397,
				280,
				115.4000015258789
			],
			"min":[
				243,
				0,
				-269
			],
			"type":"VEC3"
		},
		{
			"bufferView":14,
			"componentType":5126,
			"count":286,
			"type":"VEC2"
		},
		{
			"bufferView":15,
			"componentType":5126,
			"count":286,
			"type":"VEC3"
		},
		{
			"bufferView":16,
			"componentType":5123,
			"count":564,
			"type":"SCALAR"
		},
		{
			"bufferView":17,
			"componentType":5126,
			"count":8,
			"max":[
				375,
				253.5,
				109
			],
			"min":[
				265,
				238.5,
				-65.25
			],
			"type":"VEC3"
		},
		{
			"bufferView":18,
			"componentType":5126,
			"count":8,
			"type":"VEC2"
		},
		{
			"bufferView":19,
			"componentType":5126,
			"count":8,
			"type":"VEC3"
		},
		{
			"bufferView":20,
			"componentType":5123,
			"count":12,
			"type":"SCALAR"
		},
		{
			"bufferView":21,
			"componentType":5126,
			"count":3000,
			"max":[
				207.14016723632812,
				16.875,
				278.2432556152344
			],
			"min":[
				-207.60986328125,
				1.230118989944458,
				122.99320220947266
			],
			"type":"VEC3"
		},
		{
			"bufferView":22,
			"componentType":5126,
			"count":3000,
			"type":"VEC2"
		},
		{
			"bufferView":23,
			"componentType":5126,
			"count":3000,
			"type":"VEC3"
		},
		{
			"bufferView":24,
			"componentType":5123,
			"count":5916,
			"type":"SCALAR"
		}
	],
	"bufferViews":[
		{
			"buffer":0,
			"byteLength":624,
			"byteOffset":0,
			"target":34962
		},
		{
			"buffer":0,
			"byteLength":416,
			"byteOffset":624,
			"target":34962
		},
		{
			"buffer":0,
			"byteLength":624,
			"byteOffset":1040,
			"target":34962
		},
		{
			"buffer":0,
			"byteLength":192,
			"byteOffset":1664,
			"target":34963
		},
		{
			"buffer":0,
			"byteLength":32144,
			"byteOffset":1856
		},
		{
			"buffer":0,
			"byteLength":3348,
			"byteOffset":34000,
			"target":34962
		},
		{
			"buffer":0,
			"byteLength":2232,
			"byteOffset":37348,
			"target":34962
		},
		{
			"buffer":0,
			"byteLength":3348,
			"byteOffset":39580,
			"target":34962
		},
		{
			"buffer":0,
			"byteLength":1200,
			"byteOffset":42928,
			"target":34963
		},
		{
			"buffer":0,
			"byteLength":4308,
			"byteOffset":44128,
			"target":34962
		},
		{
			"buffer":0,
			"byteLength":2872,
			"byteOffset":48436,
			"target":34962
		},
		{
			"buffer":0,
			"byteLength":4308,
			"byteOffset":51308,
			"target":34962
		},
		{
			"buffer":0,
			"byteLength":1176,
			"byteOffset":55616,
			"target":34963
		},
		{
			"buffer":0,
			"byteLength":3432,
			"byteOffset":56792,
			"target":34962
		},
		{
			"buffer":0,
			"byteLength":2288,
			"byteOffset":60224,
			"target":34962
		},
		{
			"buffer":0,
			"byteLength":3432,
			"byteOffset":62512,
			"target":34962
		},
		{
			"buffer":0,
			"byteLength":1128,
			"byteOffset":65944,
			"target":34963
		},
		{
			"buffer":0,
			"byteLength":96,
			"byteOffset":67072,
			"target":34962
		},
		{
			"buffer":0,
			"byteLength":64,
			"byteOffset":67168,
			"target":34962
		},
		{
			"buffer":0,
			"byteLength":96,
			"byteOffset":67232,
			"target":34962
		},
		{
			"buffer":0,
			"byteLength":24,
			"byteOffset":67328,
			"target":34963
		},
		{
			"buffer":0,
			"byteLength":36000,
			"byteOffset":67352,
			"target":34962
		},
		{
			"buffer":0,
			"byteLength":24000,
			"byteOffset":103352,
			"target":34962
		},
		{
			"buffer":0,
			"byteLength":36000,
			"byteOffset":127352,
			"target":34962
		},
		{
			"buffer":0,
			"byteLength":11832,
			"byteOffset":163352,
			"target":34963
		}
	],
	"samplers":[
		{
			"magFilter":9729,
			"minFilter":9987
		}
	],
	"buffers":[
		{
			"byteLength":175184,
			"uri":"data:application/octet-stream;base64,"
		}
	]
}
